<?xml version="1.0" encoding="iso-8859-1"?>
<!-- Generator: Adobe Illustrator 19.0.0, SVG Export Plug-In . SVG Version: 6.00 Build 0)  -->
<svg version="1.1" id="Layer_1" xmlns="http://www.w3.org/2000/svg" xmlns:xlink="http://www.w3.org/1999/xlink" x="0px" y="0px"
	 viewBox="0 0 512 512" style="enable-background:new 0 0 512 512;" xml:space="preserve">
<circle style="fill:#F9B233;" cx="472.581" cy="48.056" r="31.501"/>
<circle style="fill:#1D71B8;" cx="224.507" cy="280.383" r="169.316"/>
<circle style="fill:#FFFFFF;" cx="368.978" cy="201.245" r="17.789"/>
<path style="fill:#77AAD4;" d="M228.568,113.486c0,0,138.57,144.751-4.06,336.215c0,0-169.913-1.058-169.321-181.133
	C55.187,268.567,70.933,121.987,228.568,113.486z"/>
<rect x="236.317" y="166.182" style="fill:#F9B233;" width="86.632" height="70.874"/>
<polygon style="fill:#FAC15C;" points="283.573,166.187 236.32,213.439 236.32,237.065 275.699,237.065 322.95,189.813 
	322.95,166.187 "/>
<rect x="417.455" y="166.182" style="fill:#F9B233;" width="86.632" height="70.874"/>
<polygon style="fill:#FAC15C;" points="464.708,166.187 417.456,213.439 417.456,237.065 456.832,237.065 504.084,189.813 
	504.084,166.187 "/>
<g>
	<rect x="165.443" y="268.53" style="fill:#1D1D1B;" width="63.003" height="15.832"/>
	<rect x="110.317" y="300.025" style="fill:#1D1D1B;" width="23.626" height="15.832"/>
	<rect x="165.443" y="189.772" style="fill:#1D1D1B;" width="31.502" height="15.832"/>
	<rect x="236.317" y="386.657" style="fill:#1D1D1B;" width="39.379" height="15.832"/>
	<rect x="189.065" y="410.289" style="fill:#1D1D1B;" width="23.626" height="15.832"/>
	<rect x="330.823" y="292.151" style="fill:#1D1D1B;" width="23.626" height="15.832"/>
	<path style="fill:#1D1D1B;" d="M409.539,158.271v35.062h-17.988c-3.275-9.31-12.153-16.005-22.569-16.005
		c-1.366,0-2.703,0.121-4.007,0.342c-33.103-45.623-85.991-72.714-142.494-72.714c-97.026,0-175.962,78.936-175.962,175.962
		c0,30.09,7.674,59.587,22.238,85.68c-24.572,30.566-43.62,57.812-55.197,78.996c-14.709,26.914-17.372,43.636-8.381,52.625
		c3.428,3.429,8.032,5.144,13.891,5.143c6.467,0,14.462-2.09,24.084-6.273c14.81-6.438,33.616-17.77,55.892-33.682
		c11.968-8.549,24.628-18.2,37.783-28.773c26.067,14.546,55.615,22.245,85.65,22.245c97.026,0,175.962-78.936,175.962-175.962
		c0-21.947-3.982-43.29-11.829-63.526c2.162-2.358,3.852-5.151,4.936-8.228h17.988v35.817H512v-86.71L409.539,158.271
		L409.539,158.271z M377.071,201.249c0,4.46-3.629,8.088-8.089,8.088c-4.46,0-8.088-3.629-8.088-8.088
		c0-4.459,3.629-8.089,8.088-8.089C373.441,193.16,377.071,196.789,377.071,201.249z M351.038,185.456
		c-2.012,2.283-3.594,4.949-4.624,7.877h-15.547v-30.265C338.214,169.824,344.977,177.305,351.038,185.456z M244.236,216.719
		l42.616-42.616h28.182v12.43l-42.616,42.616h-28.182V216.719z M244.236,194.327v-20.225h20.225L244.236,194.327z M315.034,208.924
		v20.225H294.81L315.034,208.924z M89.845,450.525c-53.267,38.047-71.503,38.472-73.469,36.5c-1.013-1.012-2.1-9.723,11.078-33.839
		c10.597-19.389,27.869-44.267,50.181-72.336c12.132,17.545,27.411,32.787,44.945,44.91
		C111.22,434.785,100.262,443.084,89.845,450.525z M364.327,355.155h-80.754v15.832h71.236
		c-28.857,42.263-77.405,70.061-132.328,70.061c-25.217,0-50.05-5.959-72.363-17.267c32.946-27.336,68.508-59.912,103.954-95.359
		l63.968-65.038l-11.286-11.101l-63.923,64.991c-36.731,36.731-73.558,70.325-107.361,98.073
		c-9.271-6.016-17.897-12.969-25.727-20.733h16.322V378.78H95.752c-3.807-4.921-7.347-10.056-10.566-15.404
		c-14.938-24.816-22.834-53.329-22.834-82.459c0-9.571,0.848-18.948,2.464-28.061h92.751v-15.832h-89.1
		c10.085-35.335,32.03-65.716,61.233-86.549h75.119v-15.832h-47.467c19.908-8.9,41.949-13.856,65.128-13.856
		c38.122,0,74.437,13.552,102.949,37.482h-97.026v86.71h102.462v-35.817h15.547c3.276,9.309,12.153,16.004,22.568,16.004
		c1.207,0,2.392-0.092,3.551-0.265c6.684,17.875,10.079,36.682,10.079,56.014C382.611,307.694,375.994,332.951,364.327,355.155z
		 M445.595,174.103l-20.225,20.225v-20.225H445.595z M425.371,216.719l42.616-42.616h28.182v12.43l-42.616,42.616h-28.182V216.719z
		 M475.944,229.149l20.225-20.225v20.225H475.944z"/>
	<rect x="133.938" y="355.151" style="fill:#1D1D1B;" width="31.501" height="15.832"/>
	<path style="fill:#1D1D1B;" d="M472.582,87.474c-21.735,0-39.418-17.683-39.418-39.418s17.683-39.417,39.418-39.417
		C494.317,8.639,512,26.321,512,48.056S494.317,87.474,472.582,87.474z M472.582,24.472c-13.005,0-23.586,10.58-23.586,23.585
		s10.58,23.586,23.586,23.586c13.006,0,23.586-10.58,23.586-23.586C496.169,35.051,485.588,24.472,472.582,24.472z"/>
</g>
<g>
</g>
<g>
</g>
<g>
</g>
<g>
</g>
<g>
</g>
<g>
</g>
<g>
</g>
<g>
</g>
<g>
</g>
<g>
</g>
<g>
</g>
<g>
</g>
<g>
</g>
<g>
</g>
<g>
</g>
</svg>
